# xmcd CD database file
#
# Track frame offsets:
#	150
#	19326
#	48416
#	64883
#	87215
#	104576
#	114065
#	125575
#	147829
#	160849
#	170295
#	182254
#	199466
#	215498
#
# Disc length: 3030 seconds
#
# Revision: 0
# Processed by: cddbd v1.5.2PL0 Copyright (c) Steve Scherf et al.
# Submitted via: CDex 1.70beta2
#
DISCID=c20bd40e
DTITLE=Thomas Brendgens-Mönkemeyer - Beauty
DYEAR=2001
DGENRE=Jazz
TTITLE0=Wisdom of notes
TTITLE1=I thought about you
TTITLE2=You don´t know what love is
TTITLE3=It could happen to you
TTITLE4=Muddy waters blues
TTITLE5=George M.
TTITLE6=Blame it to my youth
TTITLE7=The Beatles
TTITLE8=Blues Nr. 2
TTITLE9=Beauty
TTITLE10=Footprints
TTITLE11=Small window room
TTITLE12=My romance
TTITLE13=Slippin´ and slidin´ blues
EXTD=YEAR: 2001
EXTT0=
EXTT1=
EXTT2=
EXTT3=
EXTT4=
EXTT5=
EXTT6=
EXTT7=
EXTT8=
EXTT9=
EXTT10=
EXTT11=
EXTT12=
EXTT13=
PLAYORDER=
